<?xml version="1.0" encoding="UTF-8" standalone="no"?><!DOCTYPE svg PUBLIC "-//W3C//DTD SVG 1.1//EN" "http://www.w3.org/Graphics/SVG/1.1/DTD/svg11.dtd"><svg width="100%" height="100%" viewBox="0 0 100 100" version="1.1" xmlns="http://www.w3.org/2000/svg" xmlns:xlink="http://www.w3.org/1999/xlink" xml:space="preserve" xmlns:serif="http://www.serif.com/" style="fill-rule:evenodd;clip-rule:evenodd;stroke-miterlimit:10;"><g id="Ebene-1" serif:id="Ebene 1"><path d="M95.153,50.411c-0,-24.921 -20.232,-45.153 -45.153,-45.153c-24.921,0 -45.153,20.232 -45.153,45.153c-0,24.921 20.232,45.153 45.153,45.153c24.921,0 45.153,-20.232 45.153,-45.153Z" style="fill:none;stroke:#00ff84;stroke-width:2px;"/><path d="M33.836,71.364c0,-1.771 -1.438,-3.209 -3.209,-3.209c-1.772,0 -3.21,1.438 -3.21,3.209c0,1.771 1.438,3.209 3.21,3.209c1.771,0 3.209,-1.438 3.209,-3.209Z" style="fill:none;stroke:#00ff84;stroke-width:2px;"/><path d="M63.442,76.481c-0,-2.824 -2.293,-5.116 -5.117,-5.116c-2.824,-0 -5.116,2.292 -5.116,5.116c-0,2.823 2.292,5.116 5.116,5.116c2.824,-0 5.117,-2.293 5.117,-5.116Z" style="fill:none;stroke:#00ff84;stroke-width:2px;"/><path d="M28.575,45.295c-0,-2.824 -2.293,-5.116 -5.117,-5.116c-2.824,-0 -5.116,2.292 -5.116,5.116c-0,2.823 2.292,5.116 5.116,5.116c2.824,-0 5.117,-2.293 5.117,-5.116Z" style="fill:none;stroke:#00ff84;stroke-width:2px;"/><path d="M45.674,21.635c0,-2.824 -2.292,-5.116 -5.116,-5.116c-2.824,-0 -5.117,2.292 -5.117,5.116c0,2.823 2.293,5.116 5.117,5.116c2.824,-0 5.116,-2.293 5.116,-5.116Z" style="fill:none;stroke:#00ff84;stroke-width:2px;"/><path d="M53.209,50c0,-1.771 -1.438,-3.209 -3.209,-3.209c-1.772,0 -3.21,1.438 -3.21,3.209c0,1.771 1.438,3.209 3.21,3.209c1.771,0 3.209,-1.438 3.209,-3.209Z" style="fill:none;stroke:#00ff84;stroke-width:2px;"/><path d="M79.867,56.419c0,-1.771 -1.438,-3.209 -3.209,-3.209c-1.772,-0 -3.21,1.438 -3.21,3.209c0,1.771 1.438,3.209 3.21,3.209c1.771,-0 3.209,-1.438 3.209,-3.209Z" style="fill:none;stroke:#00ff84;stroke-width:2px;"/><path d="M72.751,32.844c-0,-2.824 -2.293,-5.116 -5.117,-5.116c-2.823,0 -5.116,2.292 -5.116,5.116c-0,2.824 2.293,5.116 5.116,5.116c2.824,0 5.117,-2.292 5.117,-5.116Z" style="fill:none;stroke:#00ff84;stroke-width:2px;"/></g></svg>